<mxfile host="app.diagrams.net" modified="2024-06-15T11:21:03.701Z" agent="Mozilla/5.0 (Macintosh; Intel Mac OS X 10_15_7) AppleWebKit/537.36 (KHTML, like Gecko) Chrome/125.0.0.0 Safari/537.36" etag="VbxKVWzV3IaqtMa5cZQd" version="24.5.4" type="device">
  <diagram name="Page-1" id="rxnLqXWiQ4ZZV1x0s2rj">
    <mxGraphModel dx="1422" dy="962" grid="0" gridSize="10" guides="1" tooltips="1" connect="1" arrows="1" fold="1" page="1" pageScale="1" pageWidth="1169" pageHeight="827" math="0" shadow="0">
      <root>
        <mxCell id="0" />
        <mxCell id="1" parent="0" />
        <mxCell id="YP3xCfQyxhkkbjCU_56u-21" style="edgeStyle=none;curved=1;rounded=0;orthogonalLoop=1;jettySize=auto;html=1;exitX=0;exitY=0;exitDx=0;exitDy=0;fontSize=12;startSize=8;endSize=8;" edge="1" parent="1" source="YP3xCfQyxhkkbjCU_56u-20">
          <mxGeometry relative="1" as="geometry">
            <mxPoint x="90" y="190" as="targetPoint" />
          </mxGeometry>
        </mxCell>
        <mxCell id="YP3xCfQyxhkkbjCU_56u-22" style="edgeStyle=none;curved=1;rounded=0;orthogonalLoop=1;jettySize=auto;html=1;exitX=0;exitY=0.5;exitDx=0;exitDy=0;fontSize=12;startSize=8;endSize=8;" edge="1" parent="1" source="YP3xCfQyxhkkbjCU_56u-20">
          <mxGeometry relative="1" as="geometry">
            <mxPoint x="90" y="255" as="targetPoint" />
            <Array as="points">
              <mxPoint x="100" y="255" />
            </Array>
          </mxGeometry>
        </mxCell>
        <mxCell id="YP3xCfQyxhkkbjCU_56u-23" style="edgeStyle=none;curved=1;rounded=0;orthogonalLoop=1;jettySize=auto;html=1;exitX=0;exitY=1;exitDx=0;exitDy=0;fontSize=12;startSize=8;endSize=8;" edge="1" parent="1" source="YP3xCfQyxhkkbjCU_56u-20">
          <mxGeometry relative="1" as="geometry">
            <mxPoint x="90" y="300" as="targetPoint" />
          </mxGeometry>
        </mxCell>
        <mxCell id="YP3xCfQyxhkkbjCU_56u-42" style="edgeStyle=none;curved=1;rounded=0;orthogonalLoop=1;jettySize=auto;html=1;exitX=1;exitY=0;exitDx=0;exitDy=0;entryX=0;entryY=0.75;entryDx=0;entryDy=0;fontSize=12;startSize=8;endSize=8;" edge="1" parent="1" source="YP3xCfQyxhkkbjCU_56u-20" target="YP3xCfQyxhkkbjCU_56u-32">
          <mxGeometry relative="1" as="geometry" />
        </mxCell>
        <mxCell id="YP3xCfQyxhkkbjCU_56u-20" value="KORISNIK" style="rounded=0;whiteSpace=wrap;html=1;" vertex="1" parent="1">
          <mxGeometry x="130" y="230" width="110" height="50" as="geometry" />
        </mxCell>
        <mxCell id="YP3xCfQyxhkkbjCU_56u-25" value="Korisničko&lt;div&gt;ime&lt;/div&gt;" style="ellipse;whiteSpace=wrap;html=1;" vertex="1" parent="1">
          <mxGeometry y="230" width="90" height="50" as="geometry" />
        </mxCell>
        <mxCell id="YP3xCfQyxhkkbjCU_56u-27" value="Lozinka" style="ellipse;whiteSpace=wrap;html=1;" vertex="1" parent="1">
          <mxGeometry x="10" y="290" width="90" height="50" as="geometry" />
        </mxCell>
        <mxCell id="YP3xCfQyxhkkbjCU_56u-28" value="Email" style="ellipse;whiteSpace=wrap;html=1;" vertex="1" parent="1">
          <mxGeometry x="10" y="150" width="90" height="50" as="geometry" />
        </mxCell>
        <mxCell id="YP3xCfQyxhkkbjCU_56u-53" style="edgeStyle=none;curved=1;rounded=0;orthogonalLoop=1;jettySize=auto;html=1;exitX=1;exitY=0.5;exitDx=0;exitDy=0;entryX=0;entryY=0.5;entryDx=0;entryDy=0;fontSize=12;startSize=8;endSize=8;" edge="1" parent="1" source="YP3xCfQyxhkkbjCU_56u-30" target="YP3xCfQyxhkkbjCU_56u-52">
          <mxGeometry relative="1" as="geometry" />
        </mxCell>
        <mxCell id="YP3xCfQyxhkkbjCU_56u-71" style="edgeStyle=none;curved=1;rounded=0;orthogonalLoop=1;jettySize=auto;html=1;exitX=0;exitY=1;exitDx=0;exitDy=0;fontSize=12;startSize=8;endSize=8;" edge="1" parent="1" source="YP3xCfQyxhkkbjCU_56u-30" target="YP3xCfQyxhkkbjCU_56u-67">
          <mxGeometry relative="1" as="geometry" />
        </mxCell>
        <mxCell id="YP3xCfQyxhkkbjCU_56u-72" style="edgeStyle=none;curved=1;rounded=0;orthogonalLoop=1;jettySize=auto;html=1;exitX=0.25;exitY=1;exitDx=0;exitDy=0;fontSize=12;startSize=8;endSize=8;" edge="1" parent="1" source="YP3xCfQyxhkkbjCU_56u-30" target="YP3xCfQyxhkkbjCU_56u-68">
          <mxGeometry relative="1" as="geometry" />
        </mxCell>
        <mxCell id="YP3xCfQyxhkkbjCU_56u-73" style="edgeStyle=none;curved=1;rounded=0;orthogonalLoop=1;jettySize=auto;html=1;exitX=0.5;exitY=1;exitDx=0;exitDy=0;entryX=0.5;entryY=0;entryDx=0;entryDy=0;fontSize=12;startSize=8;endSize=8;" edge="1" parent="1" source="YP3xCfQyxhkkbjCU_56u-30" target="YP3xCfQyxhkkbjCU_56u-69">
          <mxGeometry relative="1" as="geometry" />
        </mxCell>
        <mxCell id="YP3xCfQyxhkkbjCU_56u-30" value="RADNA&lt;br&gt;AKTIVNOST" style="rounded=0;whiteSpace=wrap;html=1;" vertex="1" parent="1">
          <mxGeometry x="360" y="310" width="110" height="50" as="geometry" />
        </mxCell>
        <mxCell id="YP3xCfQyxhkkbjCU_56u-48" style="edgeStyle=none;curved=1;rounded=0;orthogonalLoop=1;jettySize=auto;html=1;exitX=0.5;exitY=0;exitDx=0;exitDy=0;entryX=0.5;entryY=1;entryDx=0;entryDy=0;fontSize=12;startSize=8;endSize=8;" edge="1" parent="1" source="YP3xCfQyxhkkbjCU_56u-32" target="YP3xCfQyxhkkbjCU_56u-44">
          <mxGeometry relative="1" as="geometry" />
        </mxCell>
        <mxCell id="YP3xCfQyxhkkbjCU_56u-49" style="edgeStyle=none;curved=1;rounded=0;orthogonalLoop=1;jettySize=auto;html=1;exitX=1;exitY=0;exitDx=0;exitDy=0;fontSize=12;startSize=8;endSize=8;" edge="1" parent="1" source="YP3xCfQyxhkkbjCU_56u-32" target="YP3xCfQyxhkkbjCU_56u-45">
          <mxGeometry relative="1" as="geometry" />
        </mxCell>
        <mxCell id="YP3xCfQyxhkkbjCU_56u-32" value="IZVJEŠĆE" style="rounded=0;whiteSpace=wrap;html=1;" vertex="1" parent="1">
          <mxGeometry x="360" y="100" width="110" height="50" as="geometry" />
        </mxCell>
        <mxCell id="YP3xCfQyxhkkbjCU_56u-33" value="N" style="text;html=1;align=center;verticalAlign=middle;whiteSpace=wrap;rounded=0;fontSize=16;" vertex="1" parent="1">
          <mxGeometry x="230" y="200" width="20" height="20" as="geometry" />
        </mxCell>
        <mxCell id="YP3xCfQyxhkkbjCU_56u-34" value="1" style="text;html=1;align=center;verticalAlign=middle;whiteSpace=wrap;rounded=0;fontSize=16;" vertex="1" parent="1">
          <mxGeometry x="330" y="120" width="30" height="20" as="geometry" />
        </mxCell>
        <mxCell id="YP3xCfQyxhkkbjCU_56u-35" value="N" style="text;html=1;align=center;verticalAlign=middle;whiteSpace=wrap;rounded=0;fontSize=16;" vertex="1" parent="1">
          <mxGeometry x="330" y="310" width="30" height="20" as="geometry" />
        </mxCell>
        <mxCell id="YP3xCfQyxhkkbjCU_56u-36" value="1" style="text;html=1;align=center;verticalAlign=middle;whiteSpace=wrap;rounded=0;fontSize=16;" vertex="1" parent="1">
          <mxGeometry x="250" y="270" width="30" height="20" as="geometry" />
        </mxCell>
        <mxCell id="YP3xCfQyxhkkbjCU_56u-40" value="" style="edgeStyle=none;curved=1;rounded=0;orthogonalLoop=1;jettySize=auto;html=1;exitX=1;exitY=1;exitDx=0;exitDy=0;fontSize=12;startSize=8;endSize=8;entryX=0;entryY=0.75;entryDx=0;entryDy=0;" edge="1" parent="1" source="YP3xCfQyxhkkbjCU_56u-20" target="YP3xCfQyxhkkbjCU_56u-30">
          <mxGeometry relative="1" as="geometry">
            <mxPoint x="240" y="280" as="sourcePoint" />
            <mxPoint x="360" y="348" as="targetPoint" />
          </mxGeometry>
        </mxCell>
        <mxCell id="YP3xCfQyxhkkbjCU_56u-38" value="radi" style="rhombus;whiteSpace=wrap;html=1;" vertex="1" parent="1">
          <mxGeometry x="260" y="290" width="70" height="40" as="geometry" />
        </mxCell>
        <mxCell id="YP3xCfQyxhkkbjCU_56u-41" value="stvara" style="rhombus;whiteSpace=wrap;html=1;" vertex="1" parent="1">
          <mxGeometry x="270" y="160" width="70" height="40" as="geometry" />
        </mxCell>
        <mxCell id="YP3xCfQyxhkkbjCU_56u-43" value="Naziv" style="ellipse;whiteSpace=wrap;html=1;" vertex="1" parent="1">
          <mxGeometry x="270" y="20" width="90" height="50" as="geometry" />
        </mxCell>
        <mxCell id="YP3xCfQyxhkkbjCU_56u-44" value="Datum" style="ellipse;whiteSpace=wrap;html=1;" vertex="1" parent="1">
          <mxGeometry x="370" y="20" width="90" height="50" as="geometry" />
        </mxCell>
        <mxCell id="YP3xCfQyxhkkbjCU_56u-45" value="Sadržaj" style="ellipse;whiteSpace=wrap;html=1;" vertex="1" parent="1">
          <mxGeometry x="480" y="10" width="90" height="50" as="geometry" />
        </mxCell>
        <mxCell id="YP3xCfQyxhkkbjCU_56u-47" style="edgeStyle=none;curved=1;rounded=0;orthogonalLoop=1;jettySize=auto;html=1;exitX=0;exitY=0;exitDx=0;exitDy=0;entryX=0.609;entryY=0.986;entryDx=0;entryDy=0;entryPerimeter=0;fontSize=12;startSize=8;endSize=8;" edge="1" parent="1" source="YP3xCfQyxhkkbjCU_56u-32" target="YP3xCfQyxhkkbjCU_56u-43">
          <mxGeometry relative="1" as="geometry" />
        </mxCell>
        <mxCell id="YP3xCfQyxhkkbjCU_56u-50" value="pripada" style="rhombus;whiteSpace=wrap;html=1;" vertex="1" parent="1">
          <mxGeometry x="506" y="313" width="70" height="40" as="geometry" />
        </mxCell>
        <mxCell id="YP3xCfQyxhkkbjCU_56u-66" style="edgeStyle=none;curved=1;rounded=0;orthogonalLoop=1;jettySize=auto;html=1;exitX=0.5;exitY=1;exitDx=0;exitDy=0;fontSize=12;startSize=8;endSize=8;" edge="1" parent="1" source="YP3xCfQyxhkkbjCU_56u-52" target="YP3xCfQyxhkkbjCU_56u-54">
          <mxGeometry relative="1" as="geometry" />
        </mxCell>
        <mxCell id="YP3xCfQyxhkkbjCU_56u-89" style="edgeStyle=none;curved=1;rounded=0;orthogonalLoop=1;jettySize=auto;html=1;exitX=0.25;exitY=0;exitDx=0;exitDy=0;entryX=0.5;entryY=1;entryDx=0;entryDy=0;fontSize=12;startSize=8;endSize=8;" edge="1" parent="1" source="YP3xCfQyxhkkbjCU_56u-52" target="YP3xCfQyxhkkbjCU_56u-76">
          <mxGeometry relative="1" as="geometry" />
        </mxCell>
        <mxCell id="YP3xCfQyxhkkbjCU_56u-90" style="edgeStyle=none;curved=1;rounded=0;orthogonalLoop=1;jettySize=auto;html=1;exitX=1;exitY=0;exitDx=0;exitDy=0;entryX=0;entryY=0.5;entryDx=0;entryDy=0;fontSize=12;startSize=8;endSize=8;" edge="1" parent="1" source="YP3xCfQyxhkkbjCU_56u-52" target="YP3xCfQyxhkkbjCU_56u-78">
          <mxGeometry relative="1" as="geometry" />
        </mxCell>
        <mxCell id="YP3xCfQyxhkkbjCU_56u-52" value="PROJEKT" style="rounded=0;whiteSpace=wrap;html=1;" vertex="1" parent="1">
          <mxGeometry x="625" y="313" width="110" height="50" as="geometry" />
        </mxCell>
        <mxCell id="YP3xCfQyxhkkbjCU_56u-60" style="edgeStyle=none;curved=1;rounded=0;orthogonalLoop=1;jettySize=auto;html=1;entryX=0;entryY=0.5;entryDx=0;entryDy=0;fontSize=12;startSize=8;endSize=8;" edge="1" parent="1" source="YP3xCfQyxhkkbjCU_56u-55" target="YP3xCfQyxhkkbjCU_56u-56">
          <mxGeometry relative="1" as="geometry" />
        </mxCell>
        <mxCell id="YP3xCfQyxhkkbjCU_56u-87" style="edgeStyle=none;curved=1;rounded=0;orthogonalLoop=1;jettySize=auto;html=1;exitX=0.5;exitY=1;exitDx=0;exitDy=0;entryX=0.5;entryY=0;entryDx=0;entryDy=0;fontSize=12;startSize=8;endSize=8;" edge="1" parent="1" source="YP3xCfQyxhkkbjCU_56u-54" target="YP3xCfQyxhkkbjCU_56u-86">
          <mxGeometry relative="1" as="geometry" />
        </mxCell>
        <mxCell id="YP3xCfQyxhkkbjCU_56u-54" value="TIM" style="rounded=0;whiteSpace=wrap;html=1;" vertex="1" parent="1">
          <mxGeometry x="621" y="533" width="110" height="50" as="geometry" />
        </mxCell>
        <mxCell id="YP3xCfQyxhkkbjCU_56u-62" style="edgeStyle=none;curved=1;rounded=0;orthogonalLoop=1;jettySize=auto;html=1;exitX=0.5;exitY=0;exitDx=0;exitDy=0;entryX=0.5;entryY=1;entryDx=0;entryDy=0;fontSize=12;startSize=8;endSize=8;" edge="1" parent="1" source="YP3xCfQyxhkkbjCU_56u-56" target="YP3xCfQyxhkkbjCU_56u-57">
          <mxGeometry relative="1" as="geometry" />
        </mxCell>
        <mxCell id="YP3xCfQyxhkkbjCU_56u-84" style="edgeStyle=none;curved=1;rounded=0;orthogonalLoop=1;jettySize=auto;html=1;exitX=0.25;exitY=1;exitDx=0;exitDy=0;fontSize=12;startSize=8;endSize=8;" edge="1" parent="1" source="YP3xCfQyxhkkbjCU_56u-56" target="YP3xCfQyxhkkbjCU_56u-81">
          <mxGeometry relative="1" as="geometry" />
        </mxCell>
        <mxCell id="YP3xCfQyxhkkbjCU_56u-85" style="edgeStyle=none;curved=1;rounded=0;orthogonalLoop=1;jettySize=auto;html=1;exitX=0.75;exitY=1;exitDx=0;exitDy=0;entryX=0.5;entryY=0;entryDx=0;entryDy=0;fontSize=12;startSize=8;endSize=8;" edge="1" parent="1" source="YP3xCfQyxhkkbjCU_56u-56" target="YP3xCfQyxhkkbjCU_56u-82">
          <mxGeometry relative="1" as="geometry" />
        </mxCell>
        <mxCell id="YP3xCfQyxhkkbjCU_56u-56" value="ZAPOSLENIK" style="rounded=0;whiteSpace=wrap;html=1;" vertex="1" parent="1">
          <mxGeometry x="931" y="535" width="110" height="50" as="geometry" />
        </mxCell>
        <mxCell id="YP3xCfQyxhkkbjCU_56u-83" style="edgeStyle=none;curved=1;rounded=0;orthogonalLoop=1;jettySize=auto;html=1;exitX=0.5;exitY=0;exitDx=0;exitDy=0;entryX=0.5;entryY=1;entryDx=0;entryDy=0;fontSize=12;startSize=8;endSize=8;" edge="1" parent="1" source="YP3xCfQyxhkkbjCU_56u-57" target="YP3xCfQyxhkkbjCU_56u-80">
          <mxGeometry relative="1" as="geometry" />
        </mxCell>
        <mxCell id="YP3xCfQyxhkkbjCU_56u-57" value="ULOGA" style="rounded=0;whiteSpace=wrap;html=1;" vertex="1" parent="1">
          <mxGeometry x="931" y="313" width="110" height="50" as="geometry" />
        </mxCell>
        <mxCell id="YP3xCfQyxhkkbjCU_56u-58" value="ima" style="rhombus;whiteSpace=wrap;html=1;" vertex="1" parent="1">
          <mxGeometry x="955" y="426" width="70" height="40" as="geometry" />
        </mxCell>
        <mxCell id="YP3xCfQyxhkkbjCU_56u-61" value="" style="edgeStyle=none;curved=1;rounded=0;orthogonalLoop=1;jettySize=auto;html=1;entryX=0;entryY=0.5;entryDx=0;entryDy=0;fontSize=12;startSize=8;endSize=8;" edge="1" parent="1" source="YP3xCfQyxhkkbjCU_56u-54" target="YP3xCfQyxhkkbjCU_56u-55">
          <mxGeometry relative="1" as="geometry">
            <mxPoint x="731" y="558" as="sourcePoint" />
            <mxPoint x="931" y="560" as="targetPoint" />
          </mxGeometry>
        </mxCell>
        <mxCell id="YP3xCfQyxhkkbjCU_56u-55" value="ima" style="rhombus;whiteSpace=wrap;html=1;" vertex="1" parent="1">
          <mxGeometry x="796" y="538" width="70" height="40" as="geometry" />
        </mxCell>
        <mxCell id="YP3xCfQyxhkkbjCU_56u-63" style="edgeStyle=none;curved=1;rounded=0;orthogonalLoop=1;jettySize=auto;html=1;exitX=1;exitY=0;exitDx=0;exitDy=0;fontSize=12;startSize=8;endSize=8;" edge="1" parent="1" source="YP3xCfQyxhkkbjCU_56u-58" target="YP3xCfQyxhkkbjCU_56u-58">
          <mxGeometry relative="1" as="geometry" />
        </mxCell>
        <mxCell id="YP3xCfQyxhkkbjCU_56u-51" value="ima" style="rhombus;whiteSpace=wrap;html=1;" vertex="1" parent="1">
          <mxGeometry x="645" y="423" width="70" height="40" as="geometry" />
        </mxCell>
        <mxCell id="YP3xCfQyxhkkbjCU_56u-67" value="Opis" style="ellipse;whiteSpace=wrap;html=1;" vertex="1" parent="1">
          <mxGeometry x="185" y="397" width="90" height="50" as="geometry" />
        </mxCell>
        <mxCell id="YP3xCfQyxhkkbjCU_56u-68" value="Vrijeme&lt;div&gt;Početka&lt;/div&gt;" style="ellipse;whiteSpace=wrap;html=1;" vertex="1" parent="1">
          <mxGeometry x="277" y="430" width="90" height="50" as="geometry" />
        </mxCell>
        <mxCell id="YP3xCfQyxhkkbjCU_56u-69" value="Vrijeme&amp;nbsp;&lt;div&gt;završteka&lt;/div&gt;" style="ellipse;whiteSpace=wrap;html=1;" vertex="1" parent="1">
          <mxGeometry x="433" y="430" width="90" height="50" as="geometry" />
        </mxCell>
        <mxCell id="YP3xCfQyxhkkbjCU_56u-75" value="Naziv" style="ellipse;whiteSpace=wrap;html=1;" vertex="1" parent="1">
          <mxGeometry x="544" y="218" width="90" height="50" as="geometry" />
        </mxCell>
        <mxCell id="YP3xCfQyxhkkbjCU_56u-76" value="Opis" style="ellipse;whiteSpace=wrap;html=1;" vertex="1" parent="1">
          <mxGeometry x="631" y="172" width="90" height="50" as="geometry" />
        </mxCell>
        <mxCell id="YP3xCfQyxhkkbjCU_56u-77" value="Početak" style="ellipse;whiteSpace=wrap;html=1;" vertex="1" parent="1">
          <mxGeometry x="712" y="215" width="90" height="50" as="geometry" />
        </mxCell>
        <mxCell id="YP3xCfQyxhkkbjCU_56u-78" value="Kraj" style="ellipse;whiteSpace=wrap;html=1;" vertex="1" parent="1">
          <mxGeometry x="760" y="280" width="90" height="50" as="geometry" />
        </mxCell>
        <mxCell id="YP3xCfQyxhkkbjCU_56u-80" value="Naziv" style="ellipse;whiteSpace=wrap;html=1;" vertex="1" parent="1">
          <mxGeometry x="958" y="227" width="90" height="50" as="geometry" />
        </mxCell>
        <mxCell id="YP3xCfQyxhkkbjCU_56u-81" value="Ime" style="ellipse;whiteSpace=wrap;html=1;" vertex="1" parent="1">
          <mxGeometry x="880" y="654" width="90" height="50" as="geometry" />
        </mxCell>
        <mxCell id="YP3xCfQyxhkkbjCU_56u-82" value="Prezime" style="ellipse;whiteSpace=wrap;html=1;" vertex="1" parent="1">
          <mxGeometry x="1003" y="654" width="90" height="50" as="geometry" />
        </mxCell>
        <mxCell id="YP3xCfQyxhkkbjCU_56u-86" value="Naziv" style="ellipse;whiteSpace=wrap;html=1;" vertex="1" parent="1">
          <mxGeometry x="622" y="640" width="90" height="50" as="geometry" />
        </mxCell>
        <mxCell id="YP3xCfQyxhkkbjCU_56u-88" style="edgeStyle=none;curved=1;rounded=0;orthogonalLoop=1;jettySize=auto;html=1;exitX=0;exitY=0;exitDx=0;exitDy=0;entryX=0.629;entryY=0.978;entryDx=0;entryDy=0;entryPerimeter=0;fontSize=12;startSize=8;endSize=8;" edge="1" parent="1" source="YP3xCfQyxhkkbjCU_56u-52" target="YP3xCfQyxhkkbjCU_56u-75">
          <mxGeometry relative="1" as="geometry" />
        </mxCell>
        <mxCell id="YP3xCfQyxhkkbjCU_56u-91" style="edgeStyle=none;curved=1;rounded=0;orthogonalLoop=1;jettySize=auto;html=1;exitX=0.5;exitY=0;exitDx=0;exitDy=0;entryX=0.301;entryY=0.915;entryDx=0;entryDy=0;entryPerimeter=0;fontSize=12;startSize=8;endSize=8;" edge="1" parent="1" source="YP3xCfQyxhkkbjCU_56u-52" target="YP3xCfQyxhkkbjCU_56u-77">
          <mxGeometry relative="1" as="geometry" />
        </mxCell>
      </root>
    </mxGraphModel>
  </diagram>
</mxfile>
